<?xml version="1.0" standalone="no"?>
<svg xmlns:xlink="http://www.w3.org/1999/xlink" id="wave" style="transform:rotate(0deg); transition: 0.3s" viewBox="0 0 1440 490" version="1.1" xmlns="http://www.w3.org/2000/svg"><defs><linearGradient id="sw-gradient-0" x1="0" x2="0" y1="1" y2="0"><stop stop-color="rgba(243, 106, 62, 1)" offset="0%"/><stop stop-color="rgba(255, 179, 11, 1)" offset="100%"/></linearGradient></defs><path style="transform:translate(0, 0px); opacity:1" fill="url(#sw-gradient-0)" d="M0,392L21.8,351.2C43.6,310,87,229,131,212.3C174.5,196,218,245,262,261.3C305.5,278,349,261,393,285.8C436.4,310,480,376,524,408.3C567.3,441,611,441,655,383.8C698.2,327,742,212,785,179.7C829.1,147,873,196,916,212.3C960,229,1004,212,1047,179.7C1090.9,147,1135,98,1178,130.7C1221.8,163,1265,278,1309,269.5C1352.7,261,1396,131,1440,81.7C1483.6,33,1527,65,1571,106.2C1614.5,147,1658,196,1702,212.3C1745.5,229,1789,212,1833,204.2C1876.4,196,1920,196,1964,179.7C2007.3,163,2051,131,2095,163.3C2138.2,196,2182,294,2225,334.8C2269.1,376,2313,359,2356,310.3C2400,261,2444,180,2487,187.8C2530.9,196,2575,294,2618,294C2661.8,294,2705,196,2749,155.2C2792.7,114,2836,131,2880,187.8C2923.6,245,2967,343,3011,351.2C3054.5,359,3098,278,3120,236.8L3141.8,196L3141.8,490L3120,490C3098.2,490,3055,490,3011,490C2967.3,490,2924,490,2880,490C2836.4,490,2793,490,2749,490C2705.5,490,2662,490,2618,490C2574.5,490,2531,490,2487,490C2443.6,490,2400,490,2356,490C2312.7,490,2269,490,2225,490C2181.8,490,2138,490,2095,490C2050.9,490,2007,490,1964,490C1920,490,1876,490,1833,490C1789.1,490,1745,490,1702,490C1658.2,490,1615,490,1571,490C1527.3,490,1484,490,1440,490C1396.4,490,1353,490,1309,490C1265.5,490,1222,490,1178,490C1134.5,490,1091,490,1047,490C1003.6,490,960,490,916,490C872.7,490,829,490,785,490C741.8,490,698,490,655,490C610.9,490,567,490,524,490C480,490,436,490,393,490C349.1,490,305,490,262,490C218.2,490,175,490,131,490C87.3,490,44,490,22,490L0,490Z"/></svg>